<?xml version="1.0" encoding="utf-8"?>
<!-- Generator: Adobe Illustrator 25.4.1, SVG Export Plug-In . SVG Version: 6.00 Build 0)  -->
<svg version="1.1" id="GUIDE" xmlns="http://www.w3.org/2000/svg" xmlns:xlink="http://www.w3.org/1999/xlink" x="0px" y="0px"
	 width="820px" height="630.404px" viewBox="0 0 820 630.404" style="enable-background:new 0 0 820 630.404;" xml:space="preserve"
	>
<style type="text/css">
	.st0{fill:#FFA400;stroke:#FFFFFF;stroke-width:1.3;stroke-miterlimit:10;}
	.st1{fill:#1CD0BB;stroke:#FFFFFF;stroke-width:1.3;stroke-miterlimit:10;}
	.st2{fill:#318DDE;stroke:#FFFFFF;stroke-width:1.3;stroke-miterlimit:10;}
	.st3{fill:#DFDFDF;stroke:#FFFFFF;stroke-width:1.3;stroke-miterlimit:10;}
	.st4{fill:#00A9D7;stroke:#FFFFFF;stroke-width:1.3;stroke-miterlimit:10;}
	.st5{fill:#FFFFFF;}
</style>
<g>
	<g>
		<g>
			<g>
				<path class="st0" d="M412.752,299.346L305.55,79.55C339.54,62.972,374.936,54.8,412.752,54.8V299.346z"/>
			</g>
		</g>
		<g>
			<g>
				<path class="st1" d="M412.752,299.346L196.831,184.539c25.363-47.7,60.163-81.307,108.719-104.989L412.752,299.346z"/>
			</g>
		</g>
		<g>
			<g>
				<path class="st2" d="M412.752,299.346L236.841,469.222c-75.056-77.723-90.735-189.283-40.01-284.683L412.752,299.346z"/>
			</g>
		</g>
		<g>
			<g>
				<path class="st3" d="M412.752,299.346v244.546c-70.231,0-127.125-24.15-175.912-74.67L412.752,299.346z"/>
			</g>
		</g>
		<g>
			<g>
				<path class="st4" d="M412.752,299.346V54.8c135.059,0,244.546,109.487,244.546,244.546S547.811,543.892,412.752,543.892l0,0
					V299.346z"/>
			</g>
		</g>
	</g>
	<g>
		<g>
		</g>
		<g>
		</g>
		<g>
		</g>
		<g>
		</g>
		<g>
		</g>
	</g>
</g>
<g>
	<path d="M565.225,314.54l1.714-2.007c7.544,6.858,10.77-6.615,1.016-2.797l-1.669-1.105l0.45-7.735h9.45v2.458h-7.06l-0.248,3.699
		C583.391,304.138,575.778,324.069,565.225,314.54z"/>
	<path d="M580.903,308.835c-0.483-10.588,14.172-10.75,13.757-0.09C595.145,319.335,580.47,319.492,580.903,308.835z
		 M591.795,308.835c0.312-7.311-8.297-7.513-8.028-0.09C583.437,316.077,592.08,316.224,591.795,308.835z"/>
	<path d="M598.431,304.798c-0.272-5.236,7.652-5.333,7.441-0.09C606.157,309.922,598.238,310.054,598.431,304.798z M611.579,300.896
		h2.232c-2.912,3.9-8.74,11.848-11.547,15.787h-2.232C602.942,312.78,608.767,304.835,611.579,300.896z M600.438,304.707
		c-0.143,2.994,3.549,3.074,3.428,0.09C604.005,301.821,600.317,301.715,600.438,304.707z M607.97,312.871
		c-0.27-5.232,7.635-5.335,7.442-0.089C615.679,317.998,607.778,318.125,607.97,312.871z M613.406,312.871
		c0.14-2.977-3.549-3.083-3.428-0.09C609.835,315.776,613.527,315.855,613.406,312.871z"/>
</g>
<g>
	<path d="M325.331,463.043l-2.841,0.79l-0.586-2.255c1.284-0.425,4.829-1.689,6.179-1.353v15.899h-2.751V463.043z"/>
	<path d="M332.618,473.62l1.939-1.804c5.101,6.259,11.507-3.333,1.962-2.796l-0.451-1.737l4.262-4.533h-6.833v-2.413h10.442v2.075
		l-4.397,4.511C350.93,469.799,339.478,481.936,332.618,473.62z"/>
	<path d="M348.07,464.238c-0.272-5.236,7.652-5.333,7.441-0.09C355.796,469.362,347.877,469.495,348.07,464.238z M361.218,460.337
		h2.232c-2.912,3.9-8.74,11.848-11.547,15.787h-2.232C352.581,472.221,358.406,464.276,361.218,460.337z M350.077,464.148
		c-0.143,2.994,3.549,3.074,3.428,0.09C353.645,461.261,349.956,461.156,350.077,464.148z M357.609,472.312
		c-0.27-5.232,7.635-5.335,7.442-0.089C365.318,477.439,357.417,477.565,357.609,472.312z M363.045,472.312
		c0.14-2.977-3.549-3.083-3.428-0.09C359.474,475.216,363.166,475.296,363.045,472.312z"/>
</g>
<g>
	<path d="M211.931,317.492c1.895-1.965,8.708-6.267,8.39-8.886c-0.308-3.597-4.563-2.912-6.179-0.091l-1.985-1.556
		c5.845-8.244,19.343,0.202,3.676,10.284h7.51v2.436h-11.412V317.492z"/>
	<path d="M227.338,311.832c-0.483-10.587,14.172-10.75,13.757-0.09C241.581,322.332,226.905,322.489,227.338,311.832z
		 M238.232,311.832c0.312-7.312-8.298-7.513-8.029-0.09C229.873,319.073,238.515,319.222,238.232,311.832z"/>
	<path d="M244.865,307.795c-0.272-5.236,7.653-5.333,7.442-0.09C252.592,312.919,244.672,313.051,244.865,307.795z M258.014,303.893
		h2.232c-2.912,3.9-8.74,11.848-11.547,15.787h-2.232C249.377,315.777,255.202,307.832,258.014,303.893z M246.873,307.704
		c-0.143,2.994,3.549,3.074,3.428,0.09C250.441,304.818,246.752,304.712,246.873,307.704z M254.405,315.868
		c-0.27-5.232,7.635-5.335,7.442-0.089C262.114,320.995,254.213,321.122,254.405,315.868z M259.841,315.868
		c0.14-2.978-3.549-3.082-3.429-0.09C256.271,318.772,259.962,318.852,259.841,315.868z"/>
</g>
<g>
	<path d="M265.29,164.8l-2.841,0.79l-0.586-2.255c1.284-0.425,4.829-1.689,6.179-1.353v15.899h-2.751V164.8z"/>
	<path d="M272.893,170.032c-0.483-10.587,14.172-10.75,13.757-0.09C287.134,180.533,272.46,180.689,272.893,170.032z
		 M283.785,170.032c0.312-7.312-8.298-7.513-8.028-0.09C275.427,177.274,284.069,177.422,283.785,170.032z"/>
	<path d="M290.42,165.995c-0.272-5.236,7.652-5.333,7.441-0.09C298.145,171.119,290.226,171.252,290.42,165.995z M303.567,162.094
		h2.232c-2.912,3.9-8.74,11.848-11.547,15.787h-2.232C294.931,173.978,300.755,166.033,303.567,162.094z M292.427,165.905
		c-0.143,2.994,3.549,3.074,3.428,0.09C295.994,163.018,292.306,162.913,292.427,165.905z M299.959,174.069
		c-0.27-5.232,7.635-5.335,7.442-0.089C307.668,179.196,299.767,179.322,299.959,174.069z M305.395,174.069
		c0.14-2.977-3.549-3.083-3.428-0.09C301.824,176.973,305.516,177.053,305.395,174.069z"/>
</g>
<g>
	<path d="M366.378,115.693h-7.938v-2.436h11.096c1.219,1.236-6.662,14.508-7.104,15.787h-3.135L366.378,115.693z"/>
	<path d="M373.124,117.159c-0.272-5.236,7.653-5.333,7.442-0.09C380.851,122.283,372.931,122.415,373.124,117.159z M386.273,113.257
		h2.232c-2.913,3.899-8.741,11.847-11.547,15.787h-2.233C377.636,125.141,383.46,117.196,386.273,113.257z M375.132,117.068
		c-0.143,2.994,3.549,3.074,3.428,0.09C378.699,114.182,375.011,114.076,375.132,117.068z M382.664,125.232
		c-0.27-5.233,7.635-5.334,7.442-0.089C390.373,130.358,382.473,130.486,382.664,125.232z M388.099,125.232
		c0.139-2.977-3.548-3.083-3.428-0.09C384.529,128.137,388.221,128.216,388.099,125.232z"/>
</g>
<circle class="st5" cx="412.482" cy="296.731" r="123.705"/>
</svg>
